@startuml
title DCP - 要件定義書\n MOA : <b>obde</b> / MOE : <b>teamflat</b>
left to right direction
skinparam shadowing false

class "役割" as role
class "会員" as adherent
class "機器" as materiel
class "機器タイプ" as type
class "イベント" as evenement
class "計画" as planning
class "タスク" as tache
class "要求" as demande
class "質問" as question
class "SMSグループ" as sms

イベント "1" -- "0..1" 計画
イベント "1" -- "0..*" 会員
タスク "1..*" -- "1" 計画
タスク "0..*" -- "0..*" 会員
役割 "0..1" -- "0..*" 会員
質問 "0..*" -- "1" 会員
SMSグループ "1..*" -- "0..*" 会員
役割 "0..*" -- "0..1" 役割 : 指揮
要求 "0..*" - "1" イベント
会員 "0..*" - "1" 要求
機器タイプ "0..*" - "1" 機器
要求 "1" - "0..*" 機器

@enduml
